<?xml version="1.0" encoding="UTF-8" standalone="no"?>
<!DOCTYPE svg PUBLIC "-//W3C//DTD SVG 1.1//EN"
 "http://www.w3.org/Graphics/SVG/1.1/DTD/svg11.dtd">
<!-- Generated by graphviz version 2.43.0 (0)
 -->
<!-- Title: g Pages: 1 -->
<svg width="1124pt" height="2073pt"
 viewBox="0.00 0.00 1123.50 2073.00" xmlns="http://www.w3.org/2000/svg" xmlns:xlink="http://www.w3.org/1999/xlink">
<g id="graph0" class="graph" transform="scale(1 1) rotate(0) translate(4 2069)">
<title>g</title>
<polygon fill="white" stroke="transparent" points="-4,4 -4,-2069 1119.5,-2069 1119.5,4 -4,4"/>
<!-- a0 -->
<g id="node1" class="node">
<title>a0</title>
<polygon fill="none" stroke="black" points="611,-2065 435,-2065 435,-1967 611,-1967 611,-2065"/>
<text text-anchor="middle" x="523" y="-2049.8" font-family="Times-Roman" font-size="14.00">add x15, x15, #0x1</text>
<text text-anchor="middle" x="523" y="-2034.8" font-family="Times-Roman" font-size="14.00">mov x3, #0x20</text>
<text text-anchor="middle" x="523" y="-2019.8" font-family="Times-Roman" font-size="14.00">ldrb w2, [x12]</text>
<text text-anchor="middle" x="523" y="-2004.8" font-family="Times-Roman" font-size="14.00">mov x1, #0x4a</text>
<text text-anchor="middle" x="523" y="-1989.8" font-family="Times-Roman" font-size="14.00">ccmp x1, x2, #0x0, nv</text>
<text text-anchor="middle" x="523" y="-1974.8" font-family="Times-Roman" font-size="14.00">b.ne 0x68</text>
</g>
<!-- a1 -->
<g id="node2" class="node">
<title>a1</title>
<polygon fill="none" stroke="black" points="654,-1931 498,-1931 498,-1623 654,-1623 654,-1931"/>
<text text-anchor="middle" x="576" y="-1915.8" font-family="Times-Roman" font-size="14.00">add x12, x12, #0x1</text>
<text text-anchor="middle" x="576" y="-1900.8" font-family="Times-Roman" font-size="14.00">mov x2, #0x30</text>
<text text-anchor="middle" x="576" y="-1885.8" font-family="Times-Roman" font-size="14.00">strb w2, [x13]</text>
<text text-anchor="middle" x="576" y="-1870.8" font-family="Times-Roman" font-size="14.00">add x13, x13, #0x1</text>
<text text-anchor="middle" x="576" y="-1855.8" font-family="Times-Roman" font-size="14.00">mov x2, #0x30</text>
<text text-anchor="middle" x="576" y="-1840.8" font-family="Times-Roman" font-size="14.00">strb w2, [x13]</text>
<text text-anchor="middle" x="576" y="-1825.8" font-family="Times-Roman" font-size="14.00">add x13, x13, #0x1</text>
<text text-anchor="middle" x="576" y="-1810.8" font-family="Times-Roman" font-size="14.00">mov x2, #0x30</text>
<text text-anchor="middle" x="576" y="-1795.8" font-family="Times-Roman" font-size="14.00">strb w2, [x13]</text>
<text text-anchor="middle" x="576" y="-1780.8" font-family="Times-Roman" font-size="14.00">add x13, x13, #0x1</text>
<text text-anchor="middle" x="576" y="-1765.8" font-family="Times-Roman" font-size="14.00">mov x2, #0x31</text>
<text text-anchor="middle" x="576" y="-1750.8" font-family="Times-Roman" font-size="14.00">strb w2, [x13]</text>
<text text-anchor="middle" x="576" y="-1735.8" font-family="Times-Roman" font-size="14.00">add x13, x13, #0x1</text>
<text text-anchor="middle" x="576" y="-1720.8" font-family="Times-Roman" font-size="14.00">mov x2, #0x30</text>
<text text-anchor="middle" x="576" y="-1705.8" font-family="Times-Roman" font-size="14.00">strb w2, [x13]</text>
<text text-anchor="middle" x="576" y="-1690.8" font-family="Times-Roman" font-size="14.00">add x13, x13, #0x1</text>
<text text-anchor="middle" x="576" y="-1675.8" font-family="Times-Roman" font-size="14.00">mov x2, #0x31</text>
<text text-anchor="middle" x="576" y="-1660.8" font-family="Times-Roman" font-size="14.00">strb w2, [x13]</text>
<text text-anchor="middle" x="576" y="-1645.8" font-family="Times-Roman" font-size="14.00">add x13, x13, #0x1</text>
<text text-anchor="middle" x="576" y="-1630.8" font-family="Times-Roman" font-size="14.00">mov x3, #0x1a</text>
</g>
<!-- a0&#45;&gt;a1 -->
<g id="edge1" class="edge">
<title>a0&#45;&gt;a1</title>
<path fill="none" stroke="black" d="M533.79,-1966.75C535.57,-1958.8 537.49,-1950.19 539.51,-1941.17"/>
<polygon fill="black" stroke="black" points="542.96,-1941.77 541.73,-1931.24 536.13,-1940.24 542.96,-1941.77"/>
</g>
<!-- a2 -->
<g id="node3" class="node">
<title>a2</title>
<polygon fill="none" stroke="black" points="558,-1587 382,-1587 382,-1534 558,-1534 558,-1587"/>
<text text-anchor="middle" x="470" y="-1571.8" font-family="Times-Roman" font-size="14.00">mov x1, #0x47</text>
<text text-anchor="middle" x="470" y="-1556.8" font-family="Times-Roman" font-size="14.00">ccmp x1, x2, #0x0, nv</text>
<text text-anchor="middle" x="470" y="-1541.8" font-family="Times-Roman" font-size="14.00">b.ne 0x184</text>
</g>
<!-- a0&#45;&gt;a2 -->
<g id="edge2" class="edge">
<title>a0&#45;&gt;a2</title>
<path fill="none" stroke="blue" d="M500.22,-1966.57C495.74,-1955.14 491.62,-1942.83 489,-1931 462.43,-1811.05 464.96,-1664.08 467.93,-1597.42"/>
<polygon fill="blue" stroke="blue" points="471.43,-1597.58 468.41,-1587.43 464.44,-1597.25 471.43,-1597.58"/>
</g>
<!-- a1&#45;&gt;a2 -->
<g id="edge3" class="edge">
<title>a1&#45;&gt;a2</title>
<path fill="none" stroke="black" d="M500.38,-1622.97C495.57,-1613.24 491.06,-1604.12 487.07,-1596.05"/>
<polygon fill="black" stroke="black" points="490.21,-1594.49 482.64,-1587.07 483.93,-1597.59 490.21,-1594.49"/>
</g>
<!-- a3 -->
<g id="node4" class="node">
<title>a3</title>
<polygon fill="none" stroke="black" points="548,-1498 392,-1498 392,-1175 548,-1175 548,-1498"/>
<text text-anchor="middle" x="470" y="-1482.8" font-family="Times-Roman" font-size="14.00">mov x2, #0x30</text>
<text text-anchor="middle" x="470" y="-1467.8" font-family="Times-Roman" font-size="14.00">strb w2, [x13]</text>
<text text-anchor="middle" x="470" y="-1452.8" font-family="Times-Roman" font-size="14.00">add x13, x13, #0x1</text>
<text text-anchor="middle" x="470" y="-1437.8" font-family="Times-Roman" font-size="14.00">mov x2, #0x30</text>
<text text-anchor="middle" x="470" y="-1422.8" font-family="Times-Roman" font-size="14.00">strb w2, [x13]</text>
<text text-anchor="middle" x="470" y="-1407.8" font-family="Times-Roman" font-size="14.00">add x13, x13, #0x1</text>
<text text-anchor="middle" x="470" y="-1392.8" font-family="Times-Roman" font-size="14.00">mov x2, #0x30</text>
<text text-anchor="middle" x="470" y="-1377.8" font-family="Times-Roman" font-size="14.00">strb w2, [x13]</text>
<text text-anchor="middle" x="470" y="-1362.8" font-family="Times-Roman" font-size="14.00">add x13, x13, #0x1</text>
<text text-anchor="middle" x="470" y="-1347.8" font-family="Times-Roman" font-size="14.00">mov x2, #0x31</text>
<text text-anchor="middle" x="470" y="-1332.8" font-family="Times-Roman" font-size="14.00">strb w2, [x13]</text>
<text text-anchor="middle" x="470" y="-1317.8" font-family="Times-Roman" font-size="14.00">add x13, x13, #0x1</text>
<text text-anchor="middle" x="470" y="-1302.8" font-family="Times-Roman" font-size="14.00">mov x2, #0x30</text>
<text text-anchor="middle" x="470" y="-1287.8" font-family="Times-Roman" font-size="14.00">strb w2, [x13]</text>
<text text-anchor="middle" x="470" y="-1272.8" font-family="Times-Roman" font-size="14.00">add x13, x13, #0x1</text>
<text text-anchor="middle" x="470" y="-1257.8" font-family="Times-Roman" font-size="14.00">mov x2, #0x31</text>
<text text-anchor="middle" x="470" y="-1242.8" font-family="Times-Roman" font-size="14.00">strb w2, [x13]</text>
<text text-anchor="middle" x="470" y="-1227.8" font-family="Times-Roman" font-size="14.00">add x13, x13, #0x1</text>
<text text-anchor="middle" x="470" y="-1212.8" font-family="Times-Roman" font-size="14.00">add x12, x12, #0x5</text>
<text text-anchor="middle" x="470" y="-1197.8" font-family="Times-Roman" font-size="14.00">add x16, x12, #0x0</text>
<text text-anchor="middle" x="470" y="-1182.8" font-family="Times-Roman" font-size="14.00">add x7, x8, #0x0</text>
</g>
<!-- a2&#45;&gt;a3 -->
<g id="edge4" class="edge">
<title>a2&#45;&gt;a3</title>
<path fill="none" stroke="black" d="M470,-1533.6C470,-1526.3 470,-1517.77 470,-1508.44"/>
<polygon fill="black" stroke="black" points="473.5,-1508.43 470,-1498.43 466.5,-1508.43 473.5,-1508.43"/>
</g>
<!-- a14 -->
<g id="node5" class="node">
<title>a14</title>
<polygon fill="none" stroke="black" points="313,-1378 137,-1378 137,-1295 313,-1295 313,-1378"/>
<text text-anchor="middle" x="225" y="-1362.8" font-family="Times-Roman" font-size="14.00">ldrb w2, [x12]</text>
<text text-anchor="middle" x="225" y="-1347.8" font-family="Times-Roman" font-size="14.00">add x12, x12, #0x1</text>
<text text-anchor="middle" x="225" y="-1332.8" font-family="Times-Roman" font-size="14.00">mov x1, #0x20</text>
<text text-anchor="middle" x="225" y="-1317.8" font-family="Times-Roman" font-size="14.00">ccmp x1, x2, #0x0, nv</text>
<text text-anchor="middle" x="225" y="-1302.8" font-family="Times-Roman" font-size="14.00">b.eq 0x184</text>
</g>
<!-- a2&#45;&gt;a14 -->
<g id="edge5" class="edge">
<title>a2&#45;&gt;a14</title>
<path fill="none" stroke="blue" d="M430.79,-1533.98C415.43,-1523.42 397.94,-1510.7 383,-1498 341.76,-1462.96 298.93,-1418.89 268.28,-1385.81"/>
<polygon fill="blue" stroke="blue" points="270.5,-1383.05 261.15,-1378.07 265.36,-1387.79 270.5,-1383.05"/>
</g>
<!-- a4 -->
<g id="node6" class="node">
<title>a4</title>
<polygon fill="none" stroke="black" points="550,-1139 390,-1139 390,-921 550,-921 550,-1139"/>
<text text-anchor="middle" x="470" y="-1123.8" font-family="Times-Roman" font-size="14.00">mov x3, #0x0</text>
<text text-anchor="middle" x="470" y="-1108.8" font-family="Times-Roman" font-size="14.00">ldrb w1, [x7]</text>
<text text-anchor="middle" x="470" y="-1093.8" font-family="Times-Roman" font-size="14.00">add x7, x7, #0x1</text>
<text text-anchor="middle" x="470" y="-1078.8" font-family="Times-Roman" font-size="14.00">orr x3, x1, x3, lsl #8</text>
<text text-anchor="middle" x="470" y="-1063.8" font-family="Times-Roman" font-size="14.00">ldrb w1, [x7]</text>
<text text-anchor="middle" x="470" y="-1048.8" font-family="Times-Roman" font-size="14.00">add x7, x7, #0x1</text>
<text text-anchor="middle" x="470" y="-1033.8" font-family="Times-Roman" font-size="14.00">orr x3, x1, x3, lsl #8</text>
<text text-anchor="middle" x="470" y="-1018.8" font-family="Times-Roman" font-size="14.00">ldrb w1, [x7]</text>
<text text-anchor="middle" x="470" y="-1003.8" font-family="Times-Roman" font-size="14.00">add x7, x7, #0x1</text>
<text text-anchor="middle" x="470" y="-988.8" font-family="Times-Roman" font-size="14.00">orr x3, x1, x3, lsl #8</text>
<text text-anchor="middle" x="470" y="-973.8" font-family="Times-Roman" font-size="14.00">ldrb w1, [x7]</text>
<text text-anchor="middle" x="470" y="-958.8" font-family="Times-Roman" font-size="14.00">add x7, x7, #0x1</text>
<text text-anchor="middle" x="470" y="-943.8" font-family="Times-Roman" font-size="14.00">orr x3, x1, x3, lsl #8</text>
<text text-anchor="middle" x="470" y="-928.8" font-family="Times-Roman" font-size="14.00">add x12, x16, #0x0</text>
</g>
<!-- a3&#45;&gt;a4 -->
<g id="edge6" class="edge">
<title>a3&#45;&gt;a4</title>
<path fill="none" stroke="black" d="M470,-1174.78C470,-1166.24 470,-1157.74 470,-1149.38"/>
<polygon fill="black" stroke="black" points="473.5,-1149.26 470,-1139.26 466.5,-1149.26 473.5,-1149.26"/>
</g>
<!-- a14&#45;&gt;a14 -->
<g id="edge23" class="edge">
<title>a14&#45;&gt;a14</title>
<path fill="none" stroke="blue" d="M284.13,-1378.03C309.41,-1381.3 331,-1367.45 331,-1336.5 331,-1309.78 314.91,-1295.81 294.25,-1294.59"/>
<polygon fill="blue" stroke="blue" points="293.99,-1291.09 284.13,-1294.97 294.26,-1298.09 293.99,-1291.09"/>
</g>
<!-- a15 -->
<g id="node17" class="node">
<title>a15</title>
<polygon fill="none" stroke="black" points="313,-1056.5 137,-1056.5 137,-1003.5 313,-1003.5 313,-1056.5"/>
<text text-anchor="middle" x="225" y="-1041.3" font-family="Times-Roman" font-size="14.00">mov x1, #0x9</text>
<text text-anchor="middle" x="225" y="-1026.3" font-family="Times-Roman" font-size="14.00">ccmp x1, x2, #0x0, nv</text>
<text text-anchor="middle" x="225" y="-1011.3" font-family="Times-Roman" font-size="14.00">b.eq 0x184</text>
</g>
<!-- a14&#45;&gt;a15 -->
<g id="edge22" class="edge">
<title>a14&#45;&gt;a15</title>
<path fill="none" stroke="black" d="M220.23,-1294.75C217.51,-1234.79 217.59,-1123.77 220.46,-1066.79"/>
<polygon fill="black" stroke="black" points="223.96,-1066.98 221.03,-1056.8 216.97,-1066.58 223.96,-1066.98"/>
</g>
<!-- a5 -->
<g id="node7" class="node">
<title>a5</title>
<polygon fill="none" stroke="black" points="615,-885 435,-885 435,-817 615,-817 615,-885"/>
<text text-anchor="middle" x="525" y="-869.8" font-family="Times-Roman" font-size="14.00">ldrb w2, [x12]</text>
<text text-anchor="middle" x="525" y="-854.8" font-family="Times-Roman" font-size="14.00">ldrb w1, [x7]</text>
<text text-anchor="middle" x="525" y="-839.8" font-family="Times-Roman" font-size="14.00">ccmp x1, xzr, #0x0, nv</text>
<text text-anchor="middle" x="525" y="-824.8" font-family="Times-Roman" font-size="14.00">b.ne 0x11c</text>
</g>
<!-- a4&#45;&gt;a5 -->
<g id="edge7" class="edge">
<title>a4&#45;&gt;a5</title>
<path fill="none" stroke="black" d="M503.58,-920.94C506.44,-911.73 509.21,-902.82 511.75,-894.63"/>
<polygon fill="black" stroke="black" points="515.11,-895.61 514.74,-885.03 508.43,-893.54 515.11,-895.61"/>
</g>
<!-- a6 -->
<g id="node8" class="node">
<title>a6</title>
<polygon fill="none" stroke="black" points="742,-781 566,-781 566,-728 742,-728 742,-781"/>
<text text-anchor="middle" x="654" y="-765.8" font-family="Times-Roman" font-size="14.00">mov x1, #0xa</text>
<text text-anchor="middle" x="654" y="-750.8" font-family="Times-Roman" font-size="14.00">ccmp x1, x2, #0x0, nv</text>
<text text-anchor="middle" x="654" y="-735.8" font-family="Times-Roman" font-size="14.00">b.eq 0x144</text>
</g>
<!-- a5&#45;&gt;a6 -->
<g id="edge8" class="edge">
<title>a5&#45;&gt;a6</title>
<path fill="none" stroke="black" d="M570.12,-816.95C583.23,-807.34 597.52,-796.87 610.53,-787.34"/>
<polygon fill="black" stroke="black" points="612.87,-789.97 618.87,-781.24 608.73,-784.32 612.87,-789.97"/>
</g>
<!-- a7 -->
<g id="node9" class="node">
<title>a7</title>
<polygon fill="none" stroke="black" points="723,-669.5 547,-669.5 547,-631.5 723,-631.5 723,-669.5"/>
<text text-anchor="middle" x="635" y="-654.3" font-family="Times-Roman" font-size="14.00">ccmp x1, x2, #0x0, nv</text>
<text text-anchor="middle" x="635" y="-639.3" font-family="Times-Roman" font-size="14.00">b.eq 0x138</text>
</g>
<!-- a5&#45;&gt;a7 -->
<g id="edge9" class="edge">
<title>a5&#45;&gt;a7</title>
<path fill="none" stroke="blue" d="M528.8,-816.83C532.86,-791.2 541.01,-755.56 557,-728 568.51,-708.16 586.55,-690 602.38,-676.35"/>
<polygon fill="blue" stroke="blue" points="604.98,-678.74 610.42,-669.64 600.5,-673.37 604.98,-678.74"/>
</g>
<!-- a6&#45;&gt;a7 -->
<g id="edge10" class="edge">
<title>a6&#45;&gt;a7</title>
<path fill="none" stroke="black" d="M649.21,-727.76C646.48,-713.13 643.07,-694.8 640.27,-679.77"/>
<polygon fill="black" stroke="black" points="643.63,-678.71 638.36,-669.52 636.75,-679.99 643.63,-678.71"/>
</g>
<!-- a11 -->
<g id="node10" class="node">
<title>a11</title>
<polygon fill="none" stroke="black" points="941,-692 795,-692 795,-609 941,-609 941,-692"/>
<text text-anchor="middle" x="868" y="-676.8" font-family="Times-Roman" font-size="14.00">sub x4, x15, #0x1</text>
<text text-anchor="middle" x="868" y="-661.8" font-family="Times-Roman" font-size="14.00">sub x4, x3, x4</text>
<text text-anchor="middle" x="868" y="-646.8" font-family="Times-Roman" font-size="14.00">mov x3, #0x1a</text>
<text text-anchor="middle" x="868" y="-631.8" font-family="Times-Roman" font-size="14.00">add x0, x3, #0x0</text>
<text text-anchor="middle" x="868" y="-616.8" font-family="Times-Roman" font-size="14.00">add x13, x13, x3</text>
</g>
<!-- a6&#45;&gt;a11 -->
<g id="edge11" class="edge">
<title>a6&#45;&gt;a11</title>
<path fill="none" stroke="blue" d="M707.73,-727.89C731.32,-716.65 759.54,-703.19 785.69,-690.73"/>
<polygon fill="blue" stroke="blue" points="787.32,-693.83 794.84,-686.37 784.31,-687.51 787.32,-693.83"/>
</g>
<!-- a8 -->
<g id="node11" class="node">
<title>a8</title>
<polygon fill="none" stroke="black" points="776,-535.5 596,-535.5 596,-467.5 776,-467.5 776,-535.5"/>
<text text-anchor="middle" x="686" y="-520.3" font-family="Times-Roman" font-size="14.00">ldrb w1, [x7]</text>
<text text-anchor="middle" x="686" y="-505.3" font-family="Times-Roman" font-size="14.00">add x7, x7, #0x1</text>
<text text-anchor="middle" x="686" y="-490.3" font-family="Times-Roman" font-size="14.00">ccmp x1, xzr, #0x0, nv</text>
<text text-anchor="middle" x="686" y="-475.3" font-family="Times-Roman" font-size="14.00">b.ne 0x124</text>
</g>
<!-- a7&#45;&gt;a8 -->
<g id="edge12" class="edge">
<title>a7&#45;&gt;a8</title>
<path fill="none" stroke="black" d="M641.25,-631.47C648.65,-610.15 661.22,-573.92 671.16,-545.28"/>
<polygon fill="black" stroke="black" points="674.58,-546.1 674.55,-535.5 667.97,-543.8 674.58,-546.1"/>
</g>
<!-- a10 -->
<g id="node12" class="node">
<title>a10</title>
<polygon fill="none" stroke="black" points="578,-528 422,-528 422,-475 578,-475 578,-528"/>
<text text-anchor="middle" x="500" y="-512.8" font-family="Times-Roman" font-size="14.00">add x7, x7, #0x1</text>
<text text-anchor="middle" x="500" y="-497.8" font-family="Times-Roman" font-size="14.00">add x12, x12, #0x1</text>
<text text-anchor="middle" x="500" y="-482.8" font-family="Times-Roman" font-size="14.00">b 0x100</text>
</g>
<!-- a7&#45;&gt;a10 -->
<g id="edge13" class="edge">
<title>a7&#45;&gt;a10</title>
<path fill="none" stroke="blue" d="M618.45,-631.47C596.6,-607.69 557.73,-565.37 530.5,-535.71"/>
<polygon fill="blue" stroke="blue" points="532.84,-533.08 523.5,-528.08 527.68,-537.82 532.84,-533.08"/>
</g>
<!-- a12 -->
<g id="node14" class="node">
<title>a12</title>
<polygon fill="none" stroke="black" points="992,-573 812,-573 812,-430 992,-430 992,-573"/>
<text text-anchor="middle" x="902" y="-557.8" font-family="Times-Roman" font-size="14.00">sub x13, x13, #0x1</text>
<text text-anchor="middle" x="902" y="-542.8" font-family="Times-Roman" font-size="14.00">sub x3, x3, #0x1</text>
<text text-anchor="middle" x="902" y="-527.8" font-family="Times-Roman" font-size="14.00">mov x2, #0x1</text>
<text text-anchor="middle" x="902" y="-512.8" font-family="Times-Roman" font-size="14.00">and x2, x4, x2, lsr #0</text>
<text text-anchor="middle" x="902" y="-497.8" font-family="Times-Roman" font-size="14.00">mov x4, x4, lsr #1</text>
<text text-anchor="middle" x="902" y="-482.8" font-family="Times-Roman" font-size="14.00">add x2, x2, #0x30</text>
<text text-anchor="middle" x="902" y="-467.8" font-family="Times-Roman" font-size="14.00">strb w2, [x13]</text>
<text text-anchor="middle" x="902" y="-452.8" font-family="Times-Roman" font-size="14.00">ccmp x3, xzr, #0x0, nv</text>
<text text-anchor="middle" x="902" y="-437.8" font-family="Times-Roman" font-size="14.00">b.ne 0x158</text>
</g>
<!-- a11&#45;&gt;a12 -->
<g id="edge18" class="edge">
<title>a11&#45;&gt;a12</title>
<path fill="none" stroke="black" d="M877.38,-608.94C879.27,-600.77 881.32,-591.91 883.4,-582.91"/>
<polygon fill="black" stroke="black" points="886.82,-583.64 885.67,-573.11 880.01,-582.06 886.82,-583.64"/>
</g>
<!-- a8&#45;&gt;a8 -->
<g id="edge15" class="edge">
<title>a8&#45;&gt;a8</title>
<path fill="none" stroke="blue" d="M776.2,-523.09C786.97,-519.17 794,-511.97 794,-501.5 794,-494.3 790.68,-488.65 785.1,-484.55"/>
<polygon fill="blue" stroke="blue" points="786.69,-481.43 776.2,-479.91 783.45,-487.63 786.69,-481.43"/>
</g>
<!-- a9 -->
<g id="node13" class="node">
<title>a9</title>
<polygon fill="none" stroke="black" points="594,-385.5 530,-385.5 530,-349.5 594,-349.5 594,-385.5"/>
<text text-anchor="middle" x="562" y="-363.8" font-family="Times-Roman" font-size="14.00">b 0xc8</text>
</g>
<!-- a8&#45;&gt;a9 -->
<g id="edge14" class="edge">
<title>a8&#45;&gt;a9</title>
<path fill="none" stroke="black" d="M654.71,-467.19C633.08,-444.17 604.78,-414.04 585.16,-393.15"/>
<polygon fill="black" stroke="black" points="587.5,-390.53 578.1,-385.64 582.4,-395.32 587.5,-390.53"/>
</g>
<!-- a10&#45;&gt;a5 -->
<g id="edge17" class="edge">
<title>a10&#45;&gt;a5</title>
<path fill="none" stroke="blue" d="M501.84,-528.06C506.08,-587.08 516.61,-733.44 521.89,-806.73"/>
<polygon fill="blue" stroke="blue" points="518.42,-807.27 522.63,-816.99 525.4,-806.77 518.42,-807.27"/>
</g>
<!-- a9&#45;&gt;a4 -->
<g id="edge16" class="edge">
<title>a9&#45;&gt;a4</title>
<path fill="none" stroke="blue" d="M529.93,-379.73C488.36,-394.58 420.3,-420.04 413,-430 355.09,-508.96 394,-551.58 394,-649.5 394,-755.5 394,-755.5 394,-755.5 394,-807.71 407.02,-863.56 422.28,-911.08"/>
<polygon fill="blue" stroke="blue" points="419.02,-912.37 425.46,-920.78 425.67,-910.19 419.02,-912.37"/>
</g>
<!-- a12&#45;&gt;a12 -->
<g id="edge20" class="edge">
<title>a12&#45;&gt;a12</title>
<path fill="none" stroke="blue" d="M992.2,-523.09C1002.97,-519.17 1010,-511.97 1010,-501.5 1010,-494.3 1006.68,-488.65 1001.1,-484.55"/>
<polygon fill="blue" stroke="blue" points="1002.69,-481.43 992.2,-479.91 999.45,-487.63 1002.69,-481.43"/>
</g>
<!-- a13 -->
<g id="node15" class="node">
<title>a13</title>
<polygon fill="none" stroke="black" points="965.5,-386.5 830.5,-386.5 830.5,-348.5 965.5,-348.5 965.5,-386.5"/>
<text text-anchor="middle" x="898" y="-371.3" font-family="Times-Roman" font-size="14.00">add x13, x13, x0</text>
<text text-anchor="middle" x="898" y="-356.3" font-family="Times-Roman" font-size="14.00">b 0x20c</text>
</g>
<!-- a12&#45;&gt;a13 -->
<g id="edge19" class="edge">
<title>a12&#45;&gt;a13</title>
<path fill="none" stroke="black" d="M899.86,-429.86C899.51,-418.19 899.16,-406.72 898.86,-396.91"/>
<polygon fill="black" stroke="black" points="902.35,-396.51 898.55,-386.62 895.35,-396.72 902.35,-396.51"/>
</g>
<!-- a26 -->
<g id="node16" class="node">
<title>a26</title>
<polygon fill="none" stroke="black" points="984,-305 808,-305 808,-222 984,-222 984,-305"/>
<text text-anchor="middle" x="896" y="-289.8" font-family="Times-Roman" font-size="14.00">ldrb w2, [x12]</text>
<text text-anchor="middle" x="896" y="-274.8" font-family="Times-Roman" font-size="14.00">add x12, x12, #0x1</text>
<text text-anchor="middle" x="896" y="-259.8" font-family="Times-Roman" font-size="14.00">mov x1, #0xa</text>
<text text-anchor="middle" x="896" y="-244.8" font-family="Times-Roman" font-size="14.00">ccmp x1, x2, #0x0, nv</text>
<text text-anchor="middle" x="896" y="-229.8" font-family="Times-Roman" font-size="14.00">b.ne 0x228</text>
</g>
<!-- a13&#45;&gt;a26 -->
<g id="edge21" class="edge">
<title>a13&#45;&gt;a26</title>
<path fill="none" stroke="blue" d="M897.64,-348.26C897.46,-339.05 897.23,-327.35 897,-315.65"/>
<polygon fill="blue" stroke="blue" points="900.5,-315.35 896.8,-305.42 893.5,-315.48 900.5,-315.35"/>
</g>
<!-- a27 -->
<g id="node28" class="node">
<title>a27</title>
<polygon fill="none" stroke="black" points="932,-186 776,-186 776,-148 932,-148 932,-186"/>
<text text-anchor="middle" x="854" y="-170.8" font-family="Times-Roman" font-size="14.00">ldrb w2, [x12]</text>
<text text-anchor="middle" x="854" y="-155.8" font-family="Times-Roman" font-size="14.00">add x12, x12, #0x1</text>
</g>
<!-- a26&#45;&gt;a27 -->
<g id="edge41" class="edge">
<title>a26&#45;&gt;a27</title>
<path fill="none" stroke="black" d="M877.94,-221.88C873.98,-212.96 869.88,-203.72 866.21,-195.47"/>
<polygon fill="black" stroke="black" points="869.4,-194.02 862.14,-186.3 863,-196.86 869.4,-194.02"/>
</g>
<!-- a28 -->
<g id="node29" class="node">
<title>a28</title>
<polygon fill="none" stroke="black" points="980,-112 800,-112 800,-74 980,-74 980,-112"/>
<text text-anchor="middle" x="890" y="-96.8" font-family="Times-Roman" font-size="14.00">ccmp x2, xzr, #0x0, nv</text>
<text text-anchor="middle" x="890" y="-81.8" font-family="Times-Roman" font-size="14.00">b.eq 0x238</text>
</g>
<!-- a26&#45;&gt;a28 -->
<g id="edge42" class="edge">
<title>a26&#45;&gt;a28</title>
<path fill="none" stroke="blue" d="M927.52,-221.93C940.62,-200.02 950.75,-172.51 941,-148 936.73,-137.27 929.21,-127.43 921.23,-119.18"/>
<polygon fill="blue" stroke="blue" points="923.48,-116.49 913.85,-112.07 918.62,-121.53 923.48,-116.49"/>
</g>
<!-- a15&#45;&gt;a14 -->
<g id="edge25" class="edge">
<title>a15&#45;&gt;a14</title>
<path fill="none" stroke="blue" d="M228.97,-1056.8C232.21,-1107.06 232.62,-1218.92 230.19,-1284.62"/>
<polygon fill="blue" stroke="blue" points="226.69,-1284.62 229.77,-1294.75 233.68,-1284.9 226.69,-1284.62"/>
</g>
<!-- a16 -->
<g id="node18" class="node">
<title>a16</title>
<polygon fill="none" stroke="black" points="313,-877.5 137,-877.5 137,-824.5 313,-824.5 313,-877.5"/>
<text text-anchor="middle" x="225" y="-862.3" font-family="Times-Roman" font-size="14.00">mov x1, #0x30</text>
<text text-anchor="middle" x="225" y="-847.3" font-family="Times-Roman" font-size="14.00">ccmp x1, x2, #0x0, nv</text>
<text text-anchor="middle" x="225" y="-832.3" font-family="Times-Roman" font-size="14.00">b.eq 0x1c0</text>
</g>
<!-- a15&#45;&gt;a16 -->
<g id="edge24" class="edge">
<title>a15&#45;&gt;a16</title>
<path fill="none" stroke="black" d="M225,-1003.26C225,-972.85 225,-922.07 225,-887.82"/>
<polygon fill="black" stroke="black" points="228.5,-887.77 225,-877.77 221.5,-887.77 228.5,-887.77"/>
</g>
<!-- a17 -->
<g id="node19" class="node">
<title>a17</title>
<polygon fill="none" stroke="black" points="366,-781 190,-781 190,-728 366,-728 366,-781"/>
<text text-anchor="middle" x="278" y="-765.8" font-family="Times-Roman" font-size="14.00">mov x1, #0x31</text>
<text text-anchor="middle" x="278" y="-750.8" font-family="Times-Roman" font-size="14.00">ccmp x1, x2, #0x0, nv</text>
<text text-anchor="middle" x="278" y="-735.8" font-family="Times-Roman" font-size="14.00">b.eq 0x1c0</text>
</g>
<!-- a16&#45;&gt;a17 -->
<g id="edge26" class="edge">
<title>a16&#45;&gt;a17</title>
<path fill="none" stroke="black" d="M239.48,-824.18C245.38,-813.66 252.29,-801.34 258.62,-790.06"/>
<polygon fill="black" stroke="black" points="261.7,-791.73 263.54,-781.29 255.59,-788.3 261.7,-791.73"/>
</g>
<!-- a19 -->
<g id="node20" class="node">
<title>a19</title>
<polygon fill="none" stroke="black" points="263,-669.5 83,-669.5 83,-631.5 263,-631.5 263,-669.5"/>
<text text-anchor="middle" x="173" y="-654.3" font-family="Times-Roman" font-size="14.00">ccmp x3, xzr, #0x0, nv</text>
<text text-anchor="middle" x="173" y="-639.3" font-family="Times-Roman" font-size="14.00">b.eq 0x1d8</text>
</g>
<!-- a16&#45;&gt;a19 -->
<g id="edge27" class="edge">
<title>a16&#45;&gt;a19</title>
<path fill="none" stroke="blue" d="M204.26,-824.4C195.45,-812.04 186.06,-796.54 181,-781 170.09,-747.49 169.53,-706.57 170.74,-679.82"/>
<polygon fill="blue" stroke="blue" points="174.25,-679.8 171.32,-669.62 167.26,-679.41 174.25,-679.8"/>
</g>
<!-- a17&#45;&gt;a19 -->
<g id="edge29" class="edge">
<title>a17&#45;&gt;a19</title>
<path fill="none" stroke="blue" d="M251.5,-727.76C235.42,-712.14 214.99,-692.29 199,-676.76"/>
<polygon fill="blue" stroke="blue" points="201.16,-673.97 191.55,-669.52 196.28,-678.99 201.16,-673.97"/>
</g>
<!-- a18 -->
<g id="node21" class="node">
<title>a18</title>
<polygon fill="none" stroke="black" points="355,-668.5 281,-668.5 281,-632.5 355,-632.5 355,-668.5"/>
<text text-anchor="middle" x="318" y="-646.8" font-family="Times-Roman" font-size="14.00">b 0x1d8</text>
</g>
<!-- a17&#45;&gt;a18 -->
<g id="edge28" class="edge">
<title>a17&#45;&gt;a18</title>
<path fill="none" stroke="black" d="M288.09,-727.76C294.06,-712.56 301.59,-693.35 307.6,-678.02"/>
<polygon fill="black" stroke="black" points="310.91,-679.17 311.3,-668.58 304.39,-676.61 310.91,-679.17"/>
</g>
<!-- a21 -->
<g id="node22" class="node">
<title>a21</title>
<polygon fill="none" stroke="black" points="366,-528 186,-528 186,-475 366,-475 366,-528"/>
<text text-anchor="middle" x="276" y="-512.8" font-family="Times-Roman" font-size="14.00">sub x12, x12, #0x1</text>
<text text-anchor="middle" x="276" y="-497.8" font-family="Times-Roman" font-size="14.00">ccmp x3, xzr, #0x0, nv</text>
<text text-anchor="middle" x="276" y="-482.8" font-family="Times-Roman" font-size="14.00">b.eq 0x20c</text>
</g>
<!-- a19&#45;&gt;a21 -->
<g id="edge32" class="edge">
<title>a19&#45;&gt;a21</title>
<path fill="none" stroke="blue" d="M185.63,-631.47C202.16,-607.89 231.45,-566.08 252.2,-536.47"/>
<polygon fill="blue" stroke="blue" points="255.2,-538.28 258.07,-528.08 249.47,-534.27 255.2,-538.28"/>
</g>
<!-- a20 -->
<g id="node23" class="node">
<title>a20</title>
<polygon fill="none" stroke="black" points="156,-535.5 0,-535.5 0,-467.5 156,-467.5 156,-535.5"/>
<text text-anchor="middle" x="78" y="-520.3" font-family="Times-Roman" font-size="14.00">sub x3, x3, #0x1</text>
<text text-anchor="middle" x="78" y="-505.3" font-family="Times-Roman" font-size="14.00">stur w2, [x13]</text>
<text text-anchor="middle" x="78" y="-490.3" font-family="Times-Roman" font-size="14.00">add x13, x13, #0x1</text>
<text text-anchor="middle" x="78" y="-475.3" font-family="Times-Roman" font-size="14.00">b 0x184</text>
</g>
<!-- a19&#45;&gt;a20 -->
<g id="edge31" class="edge">
<title>a19&#45;&gt;a20</title>
<path fill="none" stroke="black" d="M161.35,-631.47C147.39,-609.87 123.54,-572.97 104.92,-544.16"/>
<polygon fill="black" stroke="black" points="107.69,-542 99.33,-535.5 101.82,-545.8 107.69,-542"/>
</g>
<!-- a18&#45;&gt;a21 -->
<g id="edge30" class="edge">
<title>a18&#45;&gt;a21</title>
<path fill="none" stroke="blue" d="M313.1,-632.35C306.51,-609.28 294.63,-567.71 286.09,-537.81"/>
<polygon fill="blue" stroke="blue" points="289.44,-536.82 283.33,-528.16 282.71,-538.74 289.44,-536.82"/>
</g>
<!-- a21&#45;&gt;a26 -->
<g id="edge35" class="edge">
<title>a21&#45;&gt;a26</title>
<path fill="none" stroke="blue" d="M313.35,-474.75C333.07,-461.26 357.73,-444.57 380,-430 442.01,-389.43 452.24,-368.64 521,-341 610.98,-304.84 720.25,-285.04 797.56,-274.71"/>
<polygon fill="blue" stroke="blue" points="798.32,-278.14 807.78,-273.37 797.41,-271.2 798.32,-278.14"/>
</g>
<!-- a22 -->
<g id="node24" class="node">
<title>a22</title>
<polygon fill="none" stroke="black" points="349.5,-394 202.5,-394 202.5,-341 349.5,-341 349.5,-394"/>
<text text-anchor="middle" x="276" y="-378.8" font-family="Times-Roman" font-size="14.00">add x15, x2, #0x0</text>
<text text-anchor="middle" x="276" y="-363.8" font-family="Times-Roman" font-size="14.00">mov x2, #0x21</text>
<text text-anchor="middle" x="276" y="-348.8" font-family="Times-Roman" font-size="14.00">mov x0, #0x20</text>
</g>
<!-- a21&#45;&gt;a22 -->
<g id="edge34" class="edge">
<title>a21&#45;&gt;a22</title>
<path fill="none" stroke="black" d="M276,-474.74C276,-454.66 276,-426.54 276,-404.28"/>
<polygon fill="black" stroke="black" points="279.5,-404.2 276,-394.2 272.5,-404.2 279.5,-404.2"/>
</g>
<!-- a20&#45;&gt;a14 -->
<g id="edge33" class="edge">
<title>a20&#45;&gt;a14</title>
<path fill="none" stroke="blue" d="M73.01,-535.7C66.24,-583.66 55,-675.17 55,-753.5 55,-852 55,-852 55,-852 55,-1018.93 146.3,-1200.87 195.09,-1286.16"/>
<polygon fill="blue" stroke="blue" points="192.07,-1287.93 200.1,-1294.85 198.13,-1284.44 192.07,-1287.93"/>
</g>
<!-- a23 -->
<g id="node25" class="node">
<title>a23</title>
<polygon fill="none" stroke="black" points="366,-297.5 186,-297.5 186,-229.5 366,-229.5 366,-297.5"/>
<text text-anchor="middle" x="276" y="-282.3" font-family="Times-Roman" font-size="14.00">ldur x1, [x9, #24]</text>
<text text-anchor="middle" x="276" y="-267.3" font-family="Times-Roman" font-size="14.00">and x1, x1, x0</text>
<text text-anchor="middle" x="276" y="-252.3" font-family="Times-Roman" font-size="14.00">ccmp x1, xzr, #0x0, nv</text>
<text text-anchor="middle" x="276" y="-237.3" font-family="Times-Roman" font-size="14.00">b.ne 0x1f0</text>
</g>
<!-- a22&#45;&gt;a23 -->
<g id="edge36" class="edge">
<title>a22&#45;&gt;a23</title>
<path fill="none" stroke="black" d="M276,-340.76C276,-330.73 276,-318.95 276,-307.7"/>
<polygon fill="black" stroke="black" points="279.5,-307.57 276,-297.57 272.5,-307.57 279.5,-307.57"/>
</g>
<!-- a23&#45;&gt;a23 -->
<g id="edge38" class="edge">
<title>a23&#45;&gt;a23</title>
<path fill="none" stroke="blue" d="M366.2,-278.97C376.97,-276.16 384,-271 384,-263.5 384,-258.58 380.97,-254.67 375.85,-251.76"/>
<polygon fill="blue" stroke="blue" points="376.79,-248.38 366.2,-248.03 374.27,-254.9 376.79,-248.38"/>
</g>
<!-- a24 -->
<g id="node26" class="node">
<title>a24</title>
<polygon fill="none" stroke="black" points="329,-185 223,-185 223,-149 329,-149 329,-185"/>
<text text-anchor="middle" x="276" y="-163.3" font-family="Times-Roman" font-size="14.00">stur w2, [x9]</text>
</g>
<!-- a23&#45;&gt;a24 -->
<g id="edge37" class="edge">
<title>a23&#45;&gt;a24</title>
<path fill="none" stroke="black" d="M276,-229.45C276,-218.27 276,-205.93 276,-195.25"/>
<polygon fill="black" stroke="black" points="279.5,-195.24 276,-185.24 272.5,-195.24 279.5,-195.24"/>
</g>
<!-- a25 -->
<g id="node27" class="node">
<title>a25</title>
<polygon fill="none" stroke="black" points="313,-112 239,-112 239,-74 313,-74 313,-112"/>
<text text-anchor="middle" x="276" y="-96.8" font-family="Times-Roman" font-size="14.00">wfe</text>
<text text-anchor="middle" x="276" y="-81.8" font-family="Times-Roman" font-size="14.00">b 0x204</text>
</g>
<!-- a24&#45;&gt;a25 -->
<g id="edge39" class="edge">
<title>a24&#45;&gt;a25</title>
<path fill="none" stroke="black" d="M276,-148.94C276,-140.99 276,-131.31 276,-122.31"/>
<polygon fill="black" stroke="black" points="279.5,-122.2 276,-112.2 272.5,-122.2 279.5,-122.2"/>
</g>
<!-- a25&#45;&gt;a25 -->
<g id="edge40" class="edge">
<title>a25&#45;&gt;a25</title>
<path fill="none" stroke="blue" d="M313.02,-106.79C323.21,-106.12 331,-101.53 331,-93 331,-87.54 327.8,-83.69 322.82,-81.45"/>
<polygon fill="blue" stroke="blue" points="323.54,-78.02 313.02,-79.21 321.98,-84.85 323.54,-78.02"/>
</g>
<!-- a27&#45;&gt;a28 -->
<g id="edge43" class="edge">
<title>a27&#45;&gt;a28</title>
<path fill="none" stroke="black" d="M863.08,-147.83C867.06,-139.88 871.82,-130.37 876.21,-121.57"/>
<polygon fill="black" stroke="black" points="879.45,-122.92 880.79,-112.41 873.19,-119.79 879.45,-122.92"/>
</g>
<!-- a29 -->
<g id="node30" class="node">
<title>a29</title>
<polygon fill="none" stroke="black" points="1115.5,-38 960.5,-38 960.5,0 1115.5,0 1115.5,-38"/>
<text text-anchor="middle" x="1038" y="-22.8" font-family="Times-Roman" font-size="14.00">sub x12, x12, #0x1</text>
<text text-anchor="middle" x="1038" y="-7.8" font-family="Times-Roman" font-size="14.00">b 0x0</text>
</g>
<!-- a28&#45;&gt;a29 -->
<g id="edge44" class="edge">
<title>a28&#45;&gt;a29</title>
<path fill="none" stroke="black" d="M927.35,-73.83C946.88,-64.33 970.96,-52.61 991.67,-42.54"/>
<polygon fill="black" stroke="black" points="993.46,-45.56 1000.92,-38.04 990.4,-39.27 993.46,-45.56"/>
</g>
<!-- a30 -->
<g id="node31" class="node">
<title>a30</title>
<polygon fill="none" stroke="black" points="942,-38 778,-38 778,0 942,0 942,-38"/>
<text text-anchor="middle" x="860" y="-22.8" font-family="Times-Roman" font-size="14.00">sub x14, x13, x12</text>
<text text-anchor="middle" x="860" y="-7.8" font-family="Times-Roman" font-size="14.00">mov x14, x14, lsr #3</text>
</g>
<!-- a28&#45;&gt;a30 -->
<g id="edge45" class="edge">
<title>a28&#45;&gt;a30</title>
<path fill="none" stroke="blue" d="M882.43,-73.83C879.15,-65.96 875.24,-56.57 871.61,-47.85"/>
<polygon fill="blue" stroke="blue" points="874.75,-46.3 867.67,-38.41 868.29,-48.99 874.75,-46.3"/>
</g>
<!-- a29&#45;&gt;a1 -->
<g id="edge46" class="edge">
<title>a29&#45;&gt;a1</title>
<path fill="none" stroke="blue" d="M1038,-38.44C1038,-66.13 1038,-120.12 1038,-166 1038,-1337.5 1038,-1337.5 1038,-1337.5 1038,-1541.74 797.53,-1679.52 663.57,-1740.43"/>
<polygon fill="blue" stroke="blue" points="661.8,-1737.39 654.11,-1744.68 664.67,-1743.77 661.8,-1737.39"/>
</g>
</g>
</svg>
